<?xml version="1.0" standalone="no"?>
<!DOCTYPE svg PUBLIC "-//W3C//DTD SVG 20010904//EN"
 "http://www.w3.org/TR/2001/REC-SVG-20010904/DTD/svg10.dtd">
<svg version="1.0" xmlns="http://www.w3.org/2000/svg"
 width="1920.000000pt" height="1920.000000pt" viewBox="0 0 1920.000000 1920.000000"
 preserveAspectRatio="xMidYMid meet">
<metadata>
Created by potrace 1.14, written by Peter Selinger 2001-2017
</metadata>
<g transform="translate(0.000000,1920.000000) scale(0.100000,-0.100000)"
fill="#000000" stroke="none">
<path d="M1610 13423 c-53 -9 -157 -45 -208 -71 -210 -108 -341 -301 -389
-573 -17 -99 -18 -241 -18 -3174 0 -2961 1 -3074 19 -3175 49 -274 186 -472
399 -574 145 -70 193 -76 596 -76 302 0 358 3 439 20 232 47 411 196 495 411
27 67 57 214 57 275 l0 34 -170 0 -170 0 0 -24 c0 -43 -41 -159 -76 -213 -38
-59 -90 -98 -160 -119 -67 -20 -362 -19 -452 1 -164 37 -264 147 -292 319 -6
39 -10 1141 -10 3126 0 3288 -2 3125 49 3243 30 69 113 149 186 178 57 23 72
24 265 24 178 0 213 -3 264 -20 65 -22 126 -69 161 -125 26 -41 65 -159 65
-196 l0 -24 171 0 172 0 -7 68 c-9 104 -42 226 -83 310 -29 59 -57 96 -118
157 -97 97 -184 146 -321 180 -95 24 -104 25 -468 24 -204 -1 -382 -4 -396 -6z"/>
<path d="M4050 13409 c-261 -70 -427 -239 -517 -525 l-28 -89 -3 -3508 -2
-3507 332 2 333 3 3 2708 2 2707 330 0 330 0 2 -2707 3 -2708 333 -3 332 -2 0
3447 c0 3768 3 3547 -58 3720 -41 117 -86 187 -177 278 -88 87 -176 141 -293
178 -63 19 -92 21 -457 24 -365 2 -395 1 -465 -18z m565 -377 c105 -50 183
-165 204 -302 7 -39 11 -282 11 -607 l0 -543 -330 0 -330 0 0 563 c0 600 3
633 51 730 25 50 102 132 144 154 81 43 166 44 250 5z"/>
<path d="M6695 13424 c-160 -36 -244 -72 -331 -142 -114 -92 -193 -216 -246
-384 -21 -67 -23 -91 -23 -298 0 -207 2 -231 24 -305 52 -175 77 -213 492
-730 213 -266 397 -502 409 -525 l22 -42 8 -1222 c5 -671 11 -1378 14 -1571 3
-192 8 -669 12 -1060 7 -703 6 -711 -14 -769 -12 -32 -33 -74 -48 -93 -64 -85
-193 -142 -293 -130 -153 18 -282 153 -298 312 l-6 55 -165 0 -165 0 6 -87
c18 -309 254 -572 571 -637 107 -22 388 -22 505 0 280 52 471 240 553 544 l23
85 0 2350 0 2350 -27 97 c-27 99 -78 212 -126 279 -15 21 -191 242 -392 491
-200 249 -377 476 -393 505 -115 213 -37 472 166 543 141 50 295 4 366 -109
30 -48 68 -155 73 -206 l3 -30 168 -3 167 -2 0 37 c0 62 -19 163 -46 244 -70
212 -226 361 -454 432 -56 17 -97 20 -300 23 -129 1 -244 1 -255 -2z"/>
<path d="M8915 13415 c-299 -68 -490 -272 -562 -599 -17 -77 -18 -260 -18
-3556 l0 -3475 333 -3 332 -2 0 2710 0 2710 335 0 335 0 0 -2710 0 -2710 333
2 332 3 0 3480 0 3480 -24 95 c-72 291 -235 473 -506 563 -55 19 -89 21 -445
23 -298 2 -399 0 -445 -11z m541 -383 c57 -29 121 -97 155 -163 54 -107 59
-175 59 -760 l0 -529 -335 0 -335 0 0 518 c0 299 4 553 10 601 21 163 94 281
210 336 47 22 65 25 125 22 45 -2 85 -11 111 -25z"/>
<path d="M12045 13415 c-297 -66 -495 -282 -562 -613 -17 -82 -18 -261 -18
-3192 0 -2952 1 -3110 18 -3198 65 -334 268 -554 569 -616 64 -13 152 -16 505
-16 382 0 438 2 521 19 139 29 230 78 328 175 107 108 149 184 197 356 l21 75
3 2588 3 2587 -497 -2 -498 -3 0 -185 0 -185 168 -3 167 -2 -3 -2353 c-2
-2110 -4 -2357 -18 -2402 -59 -187 -172 -277 -369 -291 -83 -7 -183 12 -248
45 -84 43 -157 148 -181 260 -16 75 -16 6218 0 6293 26 123 105 224 214 275
l60 28 300 0 c292 0 302 -1 359 -24 114 -46 173 -133 211 -313 l5 -28 165 0
165 0 0 53 c0 28 -9 92 -20 141 -56 253 -215 428 -465 513 l-80 28 -480 2
c-373 1 -493 -1 -540 -12z"/>
<path d="M14300 9605 l0 -3825 330 0 330 0 0 3825 0 3825 -330 0 -330 0 0
-3825z"/>
<path d="M15632 9608 l3 -3823 208 -3 207 -2 0 3165 c0 1744 4 3165 9 3165 4
0 37 -33 72 -72 35 -40 197 -221 359 -402 368 -412 464 -519 929 -1041 205
-231 390 -437 409 -457 l36 -38 7 -1302 c4 -717 8 -1684 8 -2150 1 -466 4
-854 7 -862 5 -13 30 -15 140 -15 74 0 146 4 159 9 l25 9 -3 3818 -2 3818
-212 3 -213 2 0 -1005 c0 -553 -3 -1005 -7 -1005 -4 0 -17 12 -29 26 -23 26
-61 68 -304 339 -80 89 -442 496 -805 903 l-660 741 -173 0 -172 1 2 -3822z"/>
</g>
</svg>
